

<svg version="1.0" xmlns="http://www.w3.org/2000/svg"
 width="1280.000000pt" height="1280.000000pt" viewBox="0 0 1280.000000 1280.000000"
 preserveAspectRatio="xMidYMid meet">

<g transform="translate(0.000000,1280.000000) scale(0.100000,-0.100000)"
fill="white" stroke="none">
<path d="M4331 11079 l-172 -203 28 -27 c15 -15 1158 -991 2538 -2169 1381
-1178 2514 -2146 2518 -2150 5 -4 -1136 -985 -2535 -2179 -1399 -1195 -2543
-2176 -2543 -2181 0 -9 336 -408 345 -409 6 -1 5516 4702 5557 4742 l23 22
-2781 2375 c-1529 1306 -2786 2376 -2793 2378 -7 2 -90 -88 -185 -199z"/>
</g>
</svg>
